<svg width="32" height="32" viewBox="0 0 32 32.000001" >
  
  
  <g fill="#7952b3" id="layer1" transform="translate(0,-1020.3622)">
    <path d="M 6.2207031 0.041015625 L 6.2207031 0.04296875 A 0.49355265 0.49355265 0 0 0 5.75 0.48828125 C 5.74879 0.50028125 5.7324219 0.57025313 5.7324219 0.68945312 L 5.7324219 3.5429688 C 5.7324219 4.7125688 6.5327027 5.9076875 7.6132812 6.4921875 L 7.8671875 6.6289062 C 7.3665608 7.6491319 7.0683594 8.7905454 7.0683594 10.009766 C 7.0683594 10.919521 7.2353044 11.786382 7.5214844 12.591797 C 7.024805 13.208832 4.6386719 16.361049 4.6386719 20.427734 C 4.6386719 24.944534 7.7128906 28.515625 7.7128906 28.515625 A 0.50005 0.50005 0 0 0 8.4746094 28.515625 C 8.4746094 28.515625 8.6662058 28.282221 8.9121094 27.943359 C 9.1342969 28.179181 9.3609253 28.406605 9.5957031 28.623047 C 9.5731732 28.721522 9.5585937 28.823142 9.5585938 28.927734 C 9.5585938 28.996301 9.5702385 29.062471 9.578125 29.128906 C 5.3003675 29.436007 3.359375 29.998047 3.359375 29.998047 A 0.50075427 0.50075427 0 0 0 3.6542969 30.955078 C 3.6542969 30.955078 5.4772322 30.409107 9.8125 30.111328 C 9.8575512 30.266471 9.895316 30.415761 9.9453125 30.570312 C 10.044464 30.876912 10.148495 31.166384 10.246094 31.396484 C 10.294894 31.511584 10.339084 31.611178 10.394531 31.705078 C 10.422261 31.752078 10.450151 31.796069 10.503906 31.855469 C 10.557656 31.914469 10.639153 32.042969 10.910156 32.042969 C 11.18116 32.042969 11.264608 31.914269 11.318359 31.855469 C 11.372109 31.796469 11.400009 31.752078 11.427734 31.705078 C 11.483184 31.611078 11.527374 31.511584 11.576172 31.396484 C 11.673772 31.166384 11.777802 30.876912 11.876953 30.570312 C 11.893572 30.518939 11.905624 30.469908 11.921875 30.417969 C 12.026553 30.483603 12.13358 30.557312 12.236328 30.619141 C 12.330131 30.905606 12.427694 31.179966 12.519531 31.396484 C 12.568331 31.511584 12.614471 31.611178 12.669922 31.705078 C 12.697652 31.752078 12.725542 31.796069 12.779297 31.855469 C 12.833047 31.914469 12.914543 32.042969 13.185547 32.042969 C 13.45655 32.042969 13.538046 31.914269 13.591797 31.855469 C 13.645547 31.796469 13.673447 31.752078 13.701172 31.705078 C 13.748157 31.625428 13.787227 31.537052 13.828125 31.443359 C 14.06292 31.549038 14.314438 31.672606 14.519531 31.746094 C 14.874806 31.873294 15.163847 31.957031 15.462891 31.957031 C 15.795292 31.957031 16.127067 31.856119 16.542969 31.699219 C 16.815442 31.596428 17.12176 31.456719 17.441406 31.300781 C 17.452879 31.328996 17.465245 31.369802 17.476562 31.396484 C 17.525362 31.511584 17.569552 31.611178 17.625 31.705078 C 17.65273 31.752078 17.68062 31.796069 17.734375 31.855469 C 17.788125 31.914469 17.869622 32.042969 18.140625 32.042969 C 18.411628 32.042969 18.495077 31.914269 18.548828 31.855469 C 18.602578 31.796469 18.630478 31.752078 18.658203 31.705078 C 18.713653 31.611078 18.757843 31.511584 18.806641 31.396484 C 18.904241 31.166384 19.008271 30.876912 19.107422 30.570312 C 19.136981 30.478936 19.157369 30.39138 19.185547 30.298828 C 19.236787 30.265188 19.28846 30.227877 19.339844 30.193359 C 19.377494 30.321603 19.408126 30.443284 19.449219 30.570312 C 19.548369 30.876912 19.652401 31.166384 19.75 31.396484 C 19.7988 31.511584 19.84494 31.611178 19.900391 31.705078 C 19.928121 31.752078 19.956011 31.796069 20.009766 31.855469 C 20.063516 31.914469 20.145012 32.042969 20.416016 32.042969 C 20.687019 32.042969 20.768514 31.914269 20.822266 31.855469 C 20.876016 31.796469 20.903916 31.752078 20.931641 31.705078 C 20.987091 31.611078 21.033232 31.511584 21.082031 31.396484 C 21.179631 31.166384 21.283662 30.876912 21.382812 30.570312 C 21.42986 30.424876 21.465479 30.284986 21.507812 30.138672 C 25.553996 30.442427 27.269531 30.955078 27.269531 30.955078 A 0.50075428 0.50075428 0 1 0 27.564453 29.998047 C 27.564453 29.998047 25.737399 29.470367 21.746094 29.158203 C 21.756578 29.081966 21.769531 29.006322 21.769531 28.927734 C 21.769531 28.717829 21.716642 28.51945 21.630859 28.339844 C 21.761796 28.21241 21.890887 28.083473 22.017578 27.949219 C 22.258867 28.280742 22.449219 28.515625 22.449219 28.515625 A 0.50005 0.50005 0 0 0 23.210938 28.515625 C 23.210938 28.515625 26.285156 24.944534 26.285156 20.427734 C 26.285156 16.361049 23.899023 13.208832 23.402344 12.591797 C 23.688563 11.786247 23.855469 10.919256 23.855469 10.009766 C 23.855469 8.7891562 23.556432 7.6461922 23.054688 6.625 L 23.300781 6.4921875 C 24.38136 5.9076875 25.181641 4.7125687 25.181641 3.5429688 L 25.181641 0.68945312 C 25.181641 0.57075313 25.165292 0.50078125 25.164062 0.48828125 A 0.49355265 0.49355265 0 0 0 24.660156 0.04296875 A 0.49355265 0.49355265 0 0 0 24.183594 0.48046875 C 24.086814 1.3488687 23.297292 2.5188344 22.425781 2.9902344 L 21.736328 3.3632812 A 0.49355265 0.49355265 0 0 0 21.734375 3.3632812 L 20.792969 3.8730469 C 19.531514 2.9273928 17.96866 2.359375 16.271484 2.359375 L 14.658203 2.359375 L 14.652344 2.359375 L 14.652344 2.3613281 A 0.50005 0.50005 0 0 0 14.492188 2.3867188 C 12.858171 2.42242 11.348103 2.9618979 10.126953 3.875 L 9.1796875 3.3613281 L 8.4882812 2.9882812 C 7.6167697 2.5168812 6.8291968 1.3469156 6.7324219 0.47851562 A 0.49355265 0.49355265 0 0 0 6.2207031 0.041015625 z M 6.71875 2.6757812 C 7.0892797 3.1399813 7.5066543 3.5800219 8.0195312 3.8574219 L 8.7109375 4.2304688 L 11.263672 5.6132812 L 12.359375 6.2050781 A 0.49355265 0.49355265 0 0 0 12.445312 6.2402344 C 12.772108 6.3448344 13.106835 6.6528406 13.347656 7.0566406 C 13.588477 7.4605406 13.724609 7.9497563 13.724609 8.2851562 L 13.724609 8.9492188 C 13.427377 8.6251275 13.089188 8.3433141 12.712891 8.1269531 A 0.50005 0.50005 0 0 0 12.693359 8.1132812 C 12.68568 8.108931 12.679584 8.1019503 12.671875 8.0976562 A 0.50005 0.50005 0 0 0 12.654297 8.0878906 C 12.646873 8.0838082 12.640264 8.0782487 12.632812 8.0742188 L 11.933594 7.6953125 L 10.832031 7.0996094 A 0.50005 0.50005 0 0 0 10.783203 7.0742188 L 9.3457031 6.296875 L 8.7636719 5.9824219 A 0.50005 0.50005 0 0 0 8.6796875 5.9453125 L 8.0839844 5.6230469 C 7.3671896 5.2352469 6.71875 4.1875687 6.71875 3.5429688 L 6.71875 2.6757812 z M 24.195312 2.6777344 L 24.195312 3.5429688 C 24.195312 4.1875687 23.548873 5.2352469 22.832031 5.6230469 L 22.220703 5.953125 A 0.50005 0.50005 0 0 0 22.160156 5.9824219 L 21.578125 6.296875 L 20.099609 7.0976562 A 0.50005 0.50005 0 0 0 20.089844 7.1015625 L 18.990234 7.6972656 L 18.289062 8.0761719 A 0.50005 0.50005 0 0 0 18.195312 8.1367188 C 17.821833 8.3536681 17.486828 8.6360906 17.191406 8.9589844 L 17.191406 8.2871094 C 17.191406 7.9517094 17.327539 7.4624938 17.568359 7.0585938 C 17.80918 6.6547937 18.143908 6.3467875 18.470703 6.2421875 A 0.49355265 0.49355265 0 0 0 18.554688 6.2050781 L 19.650391 5.6132812 L 22.205078 4.2304688 L 22.896484 3.8574219 C 23.408556 3.5804219 23.825086 3.1409344 24.195312 2.6777344 z M 14.652344 3.359375 L 16.271484 3.359375 C 17.577954 3.359375 18.776914 3.7559906 19.796875 4.4121094 L 19.181641 4.7441406 L 18.085938 5.3378906 C 17.485334 5.5598231 17.03299 6.0289751 16.720703 6.5527344 C 16.393308 7.1017344 16.205078 7.7157094 16.205078 8.2871094 L 16.205078 8.9335938 C 15.967552 8.8037252 15.696266 8.7265625 15.410156 8.7265625 C 15.161341 8.7265625 14.925625 8.7867943 14.710938 8.8867188 L 14.710938 8.2851562 C 14.710938 7.7137562 14.522708 7.1017344 14.195312 6.5527344 C 13.883002 6.028933 13.430754 5.557847 12.830078 5.3359375 L 11.732422 4.7421875 L 11.125 4.4140625 C 12.145456 3.7570736 13.34494 3.359375 14.652344 3.359375 z M 8.8300781 7.1542969 L 8.8710938 7.1777344 L 9.8515625 7.7089844 C 9.6271324 8.095024 9.4963265 8.533687 9.4960938 8.9882812 C 9.4961107 10.384181 10.630917 11.529297 12.021484 11.529297 C 12.738726 11.529297 13.410539 11.219883 13.880859 10.703125 C 13.907109 10.81468 13.936062 10.927519 13.972656 11.058594 C 14.062746 11.381294 14.183478 11.747456 14.310547 12.097656 C 14.437615 12.447756 14.570942 12.779616 14.695312 13.041016 C 14.757502 13.171716 14.814524 13.283719 14.882812 13.386719 C 14.916963 13.438719 14.951322 13.487975 15.011719 13.546875 C 15.072119 13.605875 15.164394 13.714844 15.410156 13.714844 C 15.655899 13.714844 15.74624 13.605775 15.806641 13.546875 C 15.867041 13.487875 15.901401 13.438319 15.935547 13.386719 C 16.003837 13.283719 16.062813 13.171716 16.125 13.041016 C 16.249375 12.779616 16.382696 12.447756 16.509766 12.097656 C 16.636836 11.747456 16.755611 11.381294 16.845703 11.058594 C 16.892963 10.889308 16.932433 10.741905 16.960938 10.601562 C 17.433292 11.178166 18.139645 11.530932 18.902344 11.53125 C 20.292911 11.53125 21.427717 10.386134 21.427734 8.9902344 C 21.42715 8.5347931 21.296136 8.0956554 21.070312 7.7089844 L 22.052734 7.1777344 L 22.09375 7.1542969 C 22.515571 8.0306969 22.855469 8.9632125 22.855469 10.007812 C 22.855469 10.756813 22.686887 11.457106 22.460938 12.128906 C 21.670496 12.138906 20.862425 12.178903 20.037109 12.345703 C 18.125289 12.731703 16.577326 13.515387 15.460938 14.492188 C 14.344589 13.515887 12.79593 12.731503 10.884766 12.345703 C 10.113877 12.190603 9.3475211 12.105591 8.6035156 12.087891 A 0.50005 0.50005 0 0 0 8.5917969 12.087891 L 8.4550781 12.087891 C 8.2374177 11.427691 8.0683594 10.741812 8.0683594 10.007812 C 8.0683594 8.9630125 8.4081971 8.0306969 8.8300781 7.1542969 z M 10.8125 8.2265625 L 11.457031 8.5761719 L 11.537109 8.6191406 A 0.60722356 0.61281757 0 0 0 11.414062 8.9882812 A 0.60722356 0.61281757 0 0 0 12.021484 9.6015625 A 0.60722356 0.61281757 0 0 0 12.5625 9.265625 C 12.748542 9.4430481 12.923224 9.6508841 13.09375 9.8574219 C 12.808645 10.200822 12.475965 10.53005 12.021484 10.53125 C 11.176332 10.53125 10.496104 9.8506344 10.496094 8.9902344 C 10.496241 8.7029344 10.66675 8.4668625 10.8125 8.2265625 z M 20.113281 8.2285156 C 20.258277 8.4682156 20.427367 8.7038344 20.427734 8.9902344 C 20.427724 9.8506344 19.747496 10.53125 18.902344 10.53125 C 18.446953 10.53105 18.113926 10.201222 17.828125 9.8574219 C 17.998983 9.6504361 18.174922 9.4432198 18.361328 9.265625 A 0.60722356 0.61281757 0 0 0 18.902344 9.6015625 A 0.60722356 0.61281757 0 0 0 19.509766 8.9882812 A 0.60722356 0.61281757 0 0 0 19.386719 8.6191406 L 19.466797 8.5761719 L 20.113281 8.2285156 z M 15.410156 9.7265625 C 15.772455 9.7265625 16.003906 9.9668094 16.003906 10.224609 C 16.003906 10.234609 15.963817 10.498963 15.882812 10.789062 C 15.801813 11.079162 15.687669 11.427059 15.568359 11.755859 C 15.513669 11.906559 15.464842 12.012538 15.410156 12.148438 C 15.355376 12.012338 15.304781 11.906759 15.25 11.755859 C 15.130691 11.427059 15.016551 11.079162 14.935547 10.789062 C 14.854547 10.498963 14.814453 10.230609 14.814453 10.224609 C 14.814453 9.9668094 15.047887 9.7265625 15.410156 9.7265625 z M 9.0566406 13.121094 C 9.5927143 13.155155 10.13674 13.215607 10.6875 13.326172 C 12.616978 13.715672 14.174532 14.522919 15.109375 15.449219 C 13.502451 15.512485 12.038307 16.007675 10.947266 16.919922 C 10.396632 15.244177 9.6012565 13.905725 9.0566406 13.121094 z M 21.865234 13.123047 C 21.320275 13.907965 20.52512 15.245615 19.974609 16.919922 C 18.884037 16.008011 17.420614 15.512801 15.814453 15.449219 C 16.749284 14.522919 18.30685 13.715672 20.236328 13.326172 C 20.786544 13.215107 21.329118 13.156267 21.865234 13.123047 z M 8.09375 13.580078 C 8.5128263 14.126197 9.635528 15.674247 10.205078 17.845703 A 0.50005 0.50005 0 0 0 10.220703 17.972656 C 10.398573 18.662955 10.506248 19.394196 10.53125 20.148438 C 10.534016 20.243325 10.548828 20.331443 10.548828 20.427734 C 10.548828 20.818893 10.518883 21.193472 10.476562 21.560547 C 10.437533 21.872981 10.385941 22.181076 10.320312 22.480469 C 10.320312 22.480469 10.320312 22.482422 10.320312 22.482422 C 10.176844 23.136355 9.9765755 23.756323 9.75 24.328125 C 9.4134255 25.177285 9.0371905 25.859977 8.6875 26.433594 C 8.4471615 26.805398 8.2290565 27.101019 8.09375 27.277344 C 7.5229788 26.533544 5.6386719 23.940234 5.6386719 20.427734 C 5.6386719 16.915134 7.5229788 14.323878 8.09375 13.580078 z M 22.830078 13.580078 C 23.400849 14.323878 25.285156 16.915134 25.285156 20.427734 C 25.285156 23.940234 23.400849 26.533544 22.830078 27.277344 C 22.69311 27.098877 22.474776 26.800645 22.230469 26.421875 C 21.884262 25.852285 21.511056 25.175064 21.177734 24.335938 A 0.50005 0.50005 0 0 0 21.173828 24.328125 C 20.841129 23.488516 20.56851 22.543934 20.445312 21.541016 C 20.404315 21.179797 20.373047 20.812199 20.373047 20.427734 C 20.373047 19.571734 20.503044 18.749156 20.703125 17.972656 A 0.50005 0.50005 0 0 0 20.71875 17.839844 C 21.289409 15.671524 22.411513 14.125463 22.830078 13.580078 z M 15.460938 16.435547 C 17.212098 16.435547 18.687174 17.027564 19.650391 18.03125 C 19.47829 18.786453 19.373047 19.590779 19.373047 20.427734 C 19.373047 21.887487 19.707659 23.226811 20.142578 24.400391 C 19.515628 25.363713 18.544659 26.250478 17.597656 26.869141 C 17.097253 27.196041 16.613486 27.454653 16.220703 27.626953 C 16.024312 27.713103 15.840935 27.773013 15.703125 27.8125 C 15.565788 27.851512 15.475031 27.869141 15.462891 27.869141 C 15.450701 27.869141 15.358008 27.851525 15.220703 27.8125 C 15.083832 27.77312 14.900715 27.712549 14.705078 27.626953 C 14.705078 27.626953 14.703125 27.626953 14.703125 27.626953 C 14.507219 27.541011 14.288608 27.431337 14.056641 27.304688 C 14.056641 27.304688 14.054688 27.304688 14.054688 27.304688 C 13.822553 27.177888 13.577812 27.0322 13.328125 26.869141 C 13.328125 26.869141 13.326172 26.869141 13.326172 26.869141 C 12.379183 26.25038 11.408316 25.363618 10.78125 24.400391 C 11.107981 23.518056 11.376178 22.546726 11.486328 21.490234 C 11.48648 21.488969 11.486176 21.487594 11.486328 21.486328 C 11.518841 21.17337 11.541453 20.857148 11.544922 20.533203 C 11.545374 20.497283 11.550781 20.463836 11.550781 20.427734 C 11.550781 20.407589 11.54704 20.389219 11.546875 20.369141 C 11.542033 19.554838 11.438919 18.771437 11.271484 18.035156 C 12.234718 17.030126 13.708612 16.435547 15.460938 16.435547 z M 10.318359 25.515625 C 11.003598 26.376938 11.868501 27.096698 12.703125 27.650391 C 12.431544 27.757038 12.202039 27.948651 12.046875 28.193359 C 11.805917 27.813898 11.387754 27.556641 10.910156 27.556641 C 10.641887 27.556641 10.393756 27.639326 10.183594 27.777344 C 9.9415999 27.549364 9.7054311 27.318121 9.4882812 27.076172 C 9.7557917 26.642928 10.040843 26.10596 10.318359 25.515625 z M 20.605469 25.515625 C 20.883547 26.106733 21.169532 26.644568 21.4375 27.078125 C 21.263111 27.272335 21.079862 27.462723 20.888672 27.648438 C 20.741193 27.591781 20.582619 27.556641 20.416016 27.556641 C 19.938096 27.556641 19.518222 27.813472 19.277344 28.193359 C 19.068361 27.864252 18.725341 27.633048 18.326172 27.576172 C 19.128702 27.03241 19.948842 26.341058 20.605469 25.515625 z M 16.890625 28.408203 C 16.825725 28.566754 16.790094 28.74004 16.789062 28.919922 C 16.789 28.923421 16.787109 28.926164 16.787109 28.929688 C 16.787109 28.93303 16.789042 28.936119 16.789062 28.939453 C 16.35626 28.933726 15.926227 28.927734 15.460938 28.927734 C 15.145094 28.927734 14.843809 28.930889 14.539062 28.933594 C 14.539068 28.932278 14.539061 28.929052 14.539062 28.927734 C 14.539062 28.822519 14.524811 28.720111 14.501953 28.621094 C 14.85298 28.767102 15.154462 28.871094 15.460938 28.871094 C 15.644023 28.871094 15.82208 28.836497 16.009766 28.779297 C 16.124541 28.744611 16.258034 28.686399 16.384766 28.634766 C 16.464687 28.602064 16.533881 28.581233 16.621094 28.542969 C 16.621094 28.542969 16.623047 28.542969 16.623047 28.542969 C 16.70664 28.506272 16.802365 28.450611 16.890625 28.408203 z M 10.910156 28.556641 C 11.057695 28.556641 11.182839 28.642418 11.236328 28.777344 C 11.253821 28.822063 11.263433 28.875474 11.263672 28.929688 C 11.263663 28.929753 11.259854 28.946595 11.259766 28.947266 C 11.257077 28.954343 11.215321 29.223611 11.140625 29.511719 A 0.50005 0.50005 0 0 0 11.134766 29.541016 C 11.074973 29.76857 11.005194 30.016264 10.925781 30.261719 C 10.920681 30.277719 10.915336 30.286734 10.910156 30.302734 C 10.905056 30.286734 10.901554 30.277719 10.896484 30.261719 C 10.803724 29.975019 10.715286 29.672922 10.652344 29.419922 C 10.589404 29.167022 10.558594 28.930634 10.558594 28.927734 C 10.558594 28.881135 10.569326 28.838447 10.582031 28.798828 A 0.50005 0.50005 0 0 0 10.621094 28.742188 C 10.692784 28.618088 10.787778 28.556641 10.910156 28.556641 z M 13.185547 28.556641 C 13.333085 28.556641 13.45823 28.640465 13.511719 28.775391 C 13.511719 28.775391 13.511719 28.777344 13.511719 28.777344 C 13.529212 28.822063 13.538824 28.87352 13.539062 28.927734 C 13.539062 28.927734 13.539062 28.929688 13.539062 28.929688 C 13.539054 28.929753 13.53525 28.946596 13.535156 28.947266 C 13.532588 28.971748 13.484479 29.251989 13.404297 29.554688 C 13.395139 29.589348 13.382903 29.628237 13.373047 29.664062 C 13.315662 29.864188 13.247301 30.073871 13.177734 30.28125 C 13.175229 30.275257 13.172385 30.269386 13.169922 30.261719 C 13.157677 30.223873 13.150658 30.188625 13.138672 30.150391 A 0.50005 0.50005 0 0 0 13.136719 30.146484 C 13.054003 29.883147 12.977853 29.616133 12.921875 29.390625 C 12.866303 29.156335 12.832266 28.934072 12.832031 28.929688 C 12.832031 28.929688 12.832031 28.927734 12.832031 28.927734 C 12.83227 28.87352 12.84188 28.822063 12.859375 28.777344 C 12.859375 28.777344 12.859375 28.775391 12.859375 28.775391 C 12.912868 28.640465 13.038021 28.556641 13.185547 28.556641 z M 18.140625 28.556641 C 18.190191 28.556641 18.236861 28.564444 18.279297 28.582031 C 18.363599 28.617385 18.431207 28.68757 18.466797 28.777344 C 18.48451 28.822625 18.494141 28.872734 18.494141 28.927734 C 18.494141 28.927734 18.459159 29.113106 18.429688 29.265625 C 18.389649 29.434488 18.335028 29.637522 18.273438 29.849609 A 0.50005 0.50005 0 0 0 18.261719 29.898438 C 18.224996 30.022726 18.196283 30.137982 18.15625 30.261719 C 18.152584 30.27322 18.1483 30.281549 18.144531 30.291016 C 18.056609 30.023599 17.968521 29.741804 17.904297 29.498047 C 17.845416 29.274557 17.828666 29.147483 17.814453 29.058594 C 17.810067 29.028864 17.789062 28.928506 17.789062 28.927734 C 17.789062 28.818289 17.828184 28.725343 17.890625 28.660156 C 17.922472 28.627281 17.959554 28.599813 18.001953 28.582031 C 18.044205 28.564444 18.091063 28.556641 18.140625 28.556641 z M 20.416016 28.556641 C 20.418841 28.556641 20.42102 28.558533 20.423828 28.558594 C 20.499988 28.560554 20.568136 28.584819 20.638672 28.648438 A 0.50005 0.50005 0 0 0 20.6875 28.6875 C 20.737338 28.750426 20.769531 28.831604 20.769531 28.927734 C 20.769531 28.927734 20.736768 29.167022 20.673828 29.419922 C 20.610888 29.672922 20.522444 29.975019 20.429688 30.261719 C 20.424588 30.277719 20.419243 30.286734 20.414062 30.302734 C 20.408963 30.286734 20.405461 30.277719 20.400391 30.261719 C 20.307631 29.975019 20.221145 29.672922 20.158203 29.419922 C 20.145943 29.370658 20.148623 29.37062 20.138672 29.324219 A 0.50005 0.50005 0 0 0 20.130859 29.271484 C 20.091749 29.093084 20.0625 28.863834 20.0625 28.927734 C 20.0625 28.873368 20.072604 28.82008 20.089844 28.775391 C 20.125436 28.685617 20.193043 28.617385 20.277344 28.582031 C 20.319779 28.564444 20.366453 28.556641 20.416016 28.556641 z M 15.460938 29.927734 C 15.993425 29.927734 16.497185 29.935385 16.994141 29.941406 C 16.997015 29.951 16.999029 29.961062 17.001953 29.970703 C 17.036033 30.092893 17.070862 30.212547 17.109375 30.337891 C 16.782372 30.500342 16.446546 30.668642 16.189453 30.765625 C 15.828513 30.901725 15.533062 30.958984 15.462891 30.958984 C 15.406971 30.958984 15.160104 30.914941 14.857422 30.806641 C 14.666561 30.738003 14.412043 30.614076 14.171875 30.503906 C 14.233072 30.31148 14.28267 30.123398 14.333984 29.935547 C 14.333984 29.935547 14.335938 29.935547 14.335938 29.935547 C 14.701068 29.930384 15.069594 29.927734 15.460938 29.927734 z " transform="translate(0,1020.3622)" id="path4925"/>
  </g>

	
	</svg>
